<svg width="26" height="26" viewBox="0 0 26 26" fill="none" xmlns="http://www.w3.org/2000/svg">
<path fill-rule="evenodd" clip-rule="evenodd" d="M4.95665 7.02891C6.96199 5.02357 10.2133 5.02356 12.2186 7.02891C12.2186 7.02891 12.2186 7.02891 12.2186 7.02891L13 7.81028L13.7814 7.02892C13.7814 7.02892 13.7814 7.02891 13.7814 7.02892C15.7867 5.02357 19.038 5.02357 21.0433 7.02891C23.0487 9.03426 23.0487 12.2855 21.0433 14.2909L13.71 21.6242C13.3179 22.0164 12.6821 22.0164 12.29 21.6242L4.95665 14.2909C2.9513 12.2855 2.9513 9.03426 4.95665 7.02891ZM10.8398 8.40776C9.59597 7.16395 7.57933 7.16394 6.3355 8.40777C5.09168 9.65159 5.09168 11.6682 6.3355 12.912L13 19.5765L19.6645 12.912C20.9083 11.6682 20.9083 9.65159 19.6645 8.40777C18.4207 7.16394 16.404 7.16395 15.1602 8.40776L13 10.568L10.8398 8.40776Z" fill="white" fill-opacity="0.48"/>
</svg>
