<svg width="335" height="348" viewBox="0 0 335 348" fill="none" xmlns="http://www.w3.org/2000/svg">
<g clip-path="url(#clip0_10_12540)">
<rect width="335" height="348" fill="#0099FF"/>
<path d="M348.614 0H-9.7793V506H348.614V0Z" fill="#53C4FF"/>
<rect y="-14" width="339" height="209" fill="url(#paint0_linear_10_12540)" fill-opacity="0.8"/>
<mask id="mask0_10_12540" style="mask-type:alpha" maskUnits="userSpaceOnUse" x="97" y="206" width="185" height="114">
<path d="M209.682 206.77C214.399 206.77 218.169 211.869 218.944 218.038C224.229 260.158 257.56 300.185 281.036 317.851C281.938 318.53 281.454 320 280.324 320H98.676C97.5465 320 97.0619 318.53 97.9644 317.851C121.44 300.185 154.771 260.158 160.056 218.038C160.831 211.869 164.601 206.77 169.318 206.77H209.682Z" fill="black"/>
</mask>
<g mask="url(#mask0_10_12540)">
<path d="M213.26 206.77C218.616 206.77 222.895 211.984 223.774 218.292C230.031 263.21 270.915 305.801 297.622 322.554H83.0811C109.788 305.801 150.671 263.21 156.929 218.292C157.808 211.984 162.087 206.77 167.442 206.77H213.26Z" fill="#48AFE6"/>
<path d="M131.427 249.474C142.113 242.674 149.641 212.237 152.07 202.118L232.211 193.618L246.782 254.331C226.14 254.331 220.068 231.26 212.783 231.26C205.497 231.26 212.504 251.81 205.497 249.474C198.212 247.046 196.132 235.426 193.355 231.26C188.498 223.975 175.141 259.188 171.498 249.474C167.855 239.76 169.069 226.403 160.57 240.974C152.07 255.545 118.07 257.974 131.427 249.474Z" fill="#B8E6FF"/>
</g>
<path opacity="0.1" d="M-23.9158 207.069C-23.9158 207.069 48.3324 269.576 196.441 272.582C344.55 275.587 359 256.354 359 256.354L355.387 327.877L-13.0786 332.685C-13.0786 332.685 -25.12 205.266 -23.9158 207.069Z" fill="white"/>
<path opacity="0.5" d="M344.69 141.954H233C233 141.954 238.413 140.025 250.394 138.48C262.375 136.935 257.348 128.449 266.24 133.852C275.127 139.255 281.316 113.79 297.156 131.153C313.003 148.517 310.3 133.467 320.348 136.941C330.397 140.415 344.696 141.96 344.696 141.96L344.69 141.954Z" fill="white"/>
<path opacity="0.7" d="M75.2398 157.126H10.3247C10.3247 157.126 22.6129 155.738 28.4108 154.115C34.2088 152.492 33.0468 146.71 40.2355 150.875C47.4242 155.041 51.1329 144.625 57.3884 152.498C63.6499 160.366 61.5608 151.11 65.0407 153.887C68.5207 156.663 75.2398 157.126 75.2398 157.126Z" fill="white"/>
<path opacity="0.5" d="M345.901 223.502H296.935C296.935 223.502 305.436 222.894 308.669 221.079C311.909 219.264 312.511 214.817 317.977 218.453C323.438 222.089 323.035 215.622 326.274 215.021C329.513 214.414 328.7 217.852 332.547 220.07C336.395 222.293 340.844 221.482 345.901 223.502Z" fill="white"/>
<path d="M87.2803 313.801V302.585H96.1126V285.756H117.384V295.77H144.682V327.829H89.6885L87.2803 313.801Z" fill="#AFC2FF"/>
<path d="M182.407 286.153H171.57L166.356 294.97V324.619L182.81 323.82L182.407 286.153Z" fill="#FFCB64"/>
<path d="M181.342 303.415V270.929H192.354V281.916H202.878V320.136L182.781 320.617L181.342 303.415Z" fill="#FFDF86"/>
<path d="M304.025 287.355H320.486V306.192H328.511V273.333H350.186V324.223L303.628 331.435L304.025 287.355Z" fill="#B0D9CC"/>
<path d="M334.068 278.225H332.334V281.904H334.068V278.225Z" fill="white"/>
<path d="M335.381 297.627H333.647V301.305H335.381V297.627Z" fill="white"/>
<path d="M289.178 327.024V284.951H295.596V265.321H310.853V328.226L289.178 327.024Z" fill="#9CD1D2"/>
<path d="M141.87 327.03V280.149H159.131V322.618L141.87 327.03Z" fill="#CFD4FF"/>
<path d="M41.5229 313.404C43.1305 313.001 66.0091 298.979 81.6629 304.587C97.3167 310.195 103.337 315.406 111.766 313.001C120.195 310.597 120.195 306.192 133.037 310.195C145.88 314.203 159.125 321.013 159.125 321.013L64.4016 324.217L41.5229 313.398V313.404Z" fill="#00B79C"/>
<path d="M-13.4639 288.557C-13.4639 288.557 5.00158 279.343 13.8279 282.547C22.6603 285.75 27.4768 301.377 36.7065 303.781C45.9362 306.186 58.7844 314.6 62.3968 321.013L-11.459 323.417L-13.4639 288.557Z" fill="#3BA433"/>
<path d="M168 321.416C168 321.416 170.812 305.789 175.628 306.192C180.445 306.595 180.848 312.605 180.848 312.605C180.848 312.605 180.848 294.977 187.272 294.977C193.696 294.977 194.094 309.401 194.094 309.401C194.094 309.401 194.894 304.19 200.114 304.19C205.334 304.19 205.334 313.404 205.334 313.404C205.334 313.404 207.743 301.786 213.763 302.586C219.784 303.385 222.192 313.807 222.192 313.807C222.192 313.807 221.789 305.393 227.009 306.595C232.229 307.797 232.229 321.422 232.229 321.422L188.079 328.635L168.012 321.422L168 321.416Z" fill="#338B40"/>
<path d="M270.55 318.609C270.55 318.609 271.152 310.597 275.566 310.993C279.979 311.396 280.382 314.6 280.382 314.6C280.382 314.6 281.99 298.576 290.015 299.375C290.015 299.375 294.428 299.375 296.439 308.193C296.439 308.193 296.036 294.97 301.659 294.567C307.277 294.165 308.083 306.588 308.083 306.588C308.083 306.588 309.287 301.78 313.701 301.377C318.114 300.974 318.517 313.398 318.517 313.398C318.517 313.398 318.114 306.985 323.334 306.185C328.554 305.386 328.951 315.002 328.951 315.002C328.951 315.002 330.559 310.597 333.364 310.597C336.17 310.597 338.181 317.809 337.777 325.022L270.147 326.422C270.147 326.422 270.147 321.013 270.55 318.609Z" fill="#72D430"/>
<path d="M280.995 245.71H276.191V322.126H280.995V245.71Z" fill="#BD131B"/>
<path d="M265.461 239.505C265.461 239.505 261.224 286.033 236.65 322.404L249.192 322.021C249.192 322.021 254.725 320.145 255.292 319.018C255.859 317.892 274.218 272.491 274.218 272.491L276.732 234.469C276.732 234.469 267.44 235.27 265.461 239.5V239.505Z" fill="#D6221B"/>
<path d="M269.188 207.625C268.343 217.609 267.508 226.859 266.873 232.461L273.651 232.178L275.813 206.74C273.598 206.965 271.388 207.253 269.188 207.625Z" fill="#D6221B"/>
<path d="M277.604 185.651L277.32 160.836L274.186 160.039L272.8 161.963C272.8 161.963 271.892 174.163 270.727 188.79C272.947 188.282 275.184 187.947 277.431 187.705L277.604 185.651Z" fill="#D6221B"/>
<path d="M270.8 237.016C270.8 237.016 266.989 293.266 249.192 322.027H260.631C260.631 322.027 263.062 300.272 281.279 300.697C281.279 300.697 293.705 299.57 305.008 321.608H315.712C315.712 321.608 289.022 292.427 285.206 237.021L276.732 234.485L270.8 237.021V237.016Z" fill="#FF544D"/>
<path d="M279.976 160.039L275.015 160.789C275.015 160.789 274.569 172.911 273.86 188.161C276.302 188.078 278.743 188.376 281.184 188.376C280.517 178.204 280.234 167.848 279.976 160.039Z" fill="#FF544D"/>
<path d="M272.868 207.038C272.322 217.059 271.76 226.838 271.109 234.479L284.78 235.747C284.78 235.747 283.635 223.033 282.454 207.033C279.257 206.991 276.065 206.991 272.868 207.033V207.038Z" fill="#FF544D"/>
<path d="M282.502 219.208H272.243C272.086 219.208 271.96 219.082 271.96 218.925C271.96 218.768 272.086 218.642 272.243 218.642H282.502C282.659 218.642 282.785 218.768 282.785 218.925C282.785 219.082 282.659 219.208 282.502 219.208Z" fill="#BD131B"/>
<path d="M255.286 322.41C255.239 322.41 255.187 322.399 255.145 322.373C255.008 322.294 254.966 322.121 255.045 321.985C264.29 306.221 269.009 285.022 271.34 270.017C273.871 253.745 274.212 241.041 274.217 240.915C274.217 240.758 274.348 240.632 274.506 240.643C274.663 240.643 274.784 240.774 274.779 240.931C274.779 241.057 274.432 253.792 271.897 270.101C269.555 285.158 264.82 306.436 255.528 322.278C255.475 322.368 255.381 322.42 255.286 322.42V322.41Z" fill="#BD131B"/>
<path d="M310.509 321.702C310.436 321.702 310.367 321.676 310.31 321.618C295.085 306.493 288.003 285.278 284.738 270.143C281.205 253.755 281.273 240.763 281.273 240.632C281.273 240.48 281.399 240.354 281.557 240.354C281.714 240.354 281.84 240.485 281.835 240.637C281.835 240.768 281.772 253.708 285.289 270.038C288.534 285.095 295.579 306.2 310.703 321.22C310.814 321.33 310.814 321.508 310.703 321.618C310.651 321.676 310.577 321.702 310.504 321.702H310.509Z" fill="#BD131B"/>
<path d="M278.171 259.059C278.013 259.059 277.887 258.933 277.887 258.776V240.072C277.887 239.914 278.013 239.789 278.171 239.789C278.328 239.789 278.454 239.914 278.454 240.072V258.776C278.454 258.933 278.328 259.059 278.171 259.059Z" fill="#BD131B"/>
<path d="M278.076 231.566C277.918 231.566 277.792 231.44 277.792 231.283V204.958C277.792 204.801 277.918 204.675 278.076 204.675C278.233 204.675 278.359 204.801 278.359 204.958V231.283C278.359 231.44 278.233 231.566 278.076 231.566Z" fill="#BD131B"/>
<path d="M271.109 303.234C271.109 303.234 271.067 303.234 271.041 303.229C270.889 303.192 270.794 303.04 270.831 302.888C270.894 302.616 277.325 275.646 277.887 258.394C277.887 258.247 278.013 258.126 278.16 258.121H278.17C278.317 258.121 278.438 258.231 278.454 258.378C278.48 258.64 281.084 284.765 288.88 302.563C288.943 302.705 288.88 302.872 288.733 302.935C288.591 302.998 288.423 302.935 288.36 302.789C282.187 288.707 279.257 269.452 278.281 261.785C277.11 279.016 271.445 302.773 271.382 303.024C271.351 303.155 271.235 303.239 271.109 303.239V303.234Z" fill="#BD131B"/>
<path d="M295.589 286.317C295.537 286.317 295.479 286.301 295.432 286.269L281.404 276.967C281.336 276.92 281.289 276.847 281.278 276.768C281.268 276.684 281.294 276.605 281.352 276.543L289.394 267.707H267.613L275.834 276.537C275.887 276.595 275.918 276.674 275.908 276.757C275.902 276.836 275.86 276.909 275.792 276.957L262.941 286.259C262.815 286.348 262.636 286.322 262.547 286.196C262.458 286.07 262.484 285.892 262.61 285.803L275.204 276.684L266.757 267.612C266.678 267.528 266.663 267.413 266.705 267.308C266.752 267.203 266.852 267.141 266.962 267.141H290.03C290.14 267.141 290.245 267.203 290.287 267.308C290.334 267.413 290.313 267.528 290.24 267.612L281.987 276.674L295.741 285.798C295.873 285.887 295.904 286.06 295.82 286.191C295.768 286.275 295.678 286.317 295.584 286.317H295.589Z" fill="#BD131B"/>
<path d="M266.967 267.706C266.883 267.706 266.805 267.67 266.747 267.601C266.647 267.481 266.668 267.303 266.789 267.203L277.766 258.362L269.808 249.096H269.414C269.256 249.096 269.13 248.97 269.13 248.813C269.13 248.656 269.256 248.53 269.414 248.53C269.414 248.452 269.445 248.373 269.514 248.315L277.987 240.983C278.097 240.889 278.26 240.894 278.365 240.989L286.554 248.604C286.638 248.682 286.67 248.808 286.623 248.913C286.581 249.023 286.476 249.091 286.36 249.091H270.548L278.381 258.21C278.428 258.268 278.454 258.341 278.449 258.42C278.444 258.498 278.407 258.566 278.344 258.614L267.141 267.638C267.088 267.68 267.025 267.701 266.962 267.701L266.967 267.706ZM270.128 248.53H285.646L278.165 241.576L270.128 248.53Z" fill="#BD131B"/>
<path d="M290.035 267.706C289.977 267.706 289.914 267.685 289.862 267.648L277.997 258.624C277.934 258.577 277.898 258.508 277.887 258.43C277.877 258.351 277.903 258.278 277.955 258.215L286.145 248.629C286.245 248.509 286.423 248.498 286.544 248.598C286.665 248.698 286.675 248.876 286.575 248.996L278.575 258.356L290.203 267.198C290.329 267.292 290.35 267.47 290.256 267.591C290.198 267.664 290.114 267.701 290.03 267.701L290.035 267.706Z" fill="#BD131B"/>
<path d="M249.927 322.268C249.837 322.268 249.748 322.226 249.69 322.148C249.601 322.017 249.638 321.844 249.764 321.754L257.15 316.729L253.948 313.008C253.874 312.924 253.859 312.808 253.906 312.709C253.953 312.609 254.053 312.546 254.163 312.546H263.392C263.518 312.546 263.623 312.625 263.66 312.746C263.697 312.866 263.65 312.992 263.55 313.06L257.995 316.844L260.851 320.161C260.951 320.282 260.941 320.46 260.82 320.56C260.699 320.659 260.526 320.649 260.421 320.528L257.523 317.164L250.084 322.226C250.037 322.258 249.979 322.273 249.927 322.273V322.268ZM254.777 313.102L257.623 316.404L262.474 313.102H254.777Z" fill="#BD131B"/>
<path d="M268.285 258.398C268.211 258.398 268.143 258.372 268.091 258.32C267.98 258.21 267.975 258.032 268.085 257.921L277.215 248.535L270.632 241.963C270.521 241.853 270.521 241.675 270.632 241.565C270.742 241.455 270.92 241.455 271.031 241.565L277.808 248.331C277.918 248.441 277.918 248.614 277.808 248.729L268.484 258.315C268.427 258.372 268.353 258.398 268.28 258.398H268.285Z" fill="#BD131B"/>
<path d="M315.707 321.886C315.66 321.886 315.612 321.875 315.57 321.849L305.911 316.477L303.8 318.794C303.695 318.909 303.517 318.919 303.401 318.814C303.286 318.71 303.275 318.531 303.38 318.416L305.401 316.199L299.779 313.071C299.669 313.008 299.611 312.877 299.642 312.751C299.674 312.625 299.789 312.541 299.915 312.541H308.861C308.971 312.541 309.076 312.604 309.118 312.709C309.165 312.809 309.144 312.929 309.071 313.013L306.299 316.053L315.843 321.362C315.98 321.435 316.027 321.608 315.953 321.744C315.901 321.838 315.806 321.891 315.707 321.891V321.886ZM301.007 313.102L305.795 315.764L308.226 313.102H301.007Z" fill="#BD131B"/>
<path d="M264.238 310.943C264.159 310.943 264.08 310.911 264.028 310.848L257.623 303.611C257.518 303.495 257.528 303.317 257.649 303.212C257.765 303.108 257.943 303.118 258.048 303.239L264.453 310.476C264.558 310.591 264.547 310.77 264.427 310.874C264.374 310.922 264.306 310.943 264.238 310.943Z" fill="#BD131B"/>
<path d="M253.879 313.102C253.78 313.102 253.685 313.049 253.633 312.96C253.554 312.824 253.606 312.651 253.738 312.578L270.401 303.181C270.537 303.102 270.71 303.15 270.784 303.286C270.863 303.422 270.81 303.595 270.674 303.668L254.011 313.065C253.969 313.091 253.921 313.102 253.874 313.102H253.879Z" fill="#BD131B"/>
<path d="M297.941 310.377C297.878 310.377 297.815 310.356 297.763 310.314C297.642 310.214 297.626 310.036 297.721 309.915L303.181 303.244C303.28 303.123 303.459 303.102 303.58 303.202C303.7 303.302 303.716 303.48 303.622 303.6L298.162 310.272C298.104 310.34 298.025 310.377 297.941 310.377Z" fill="#BD131B"/>
<path d="M308.866 313.102C308.824 313.102 308.782 313.091 308.74 313.07L289.059 303.202C288.969 303.16 288.912 303.071 288.907 302.971C288.896 302.872 288.943 302.777 289.022 302.72L293.768 299.229L286.019 295.613H272.879L265.97 299.345L270.726 303.196C270.821 303.27 270.858 303.396 270.816 303.511C270.774 303.621 270.669 303.7 270.548 303.7H257.838C257.707 303.7 257.597 303.611 257.565 303.485C257.534 303.359 257.591 303.228 257.707 303.165L264.962 299.25L260.395 295.55C260.3 295.477 260.264 295.351 260.306 295.236C260.348 295.126 260.453 295.047 260.573 295.047H272.097L262.594 286.232C262.51 286.153 262.479 286.028 262.526 285.923C262.568 285.813 262.673 285.745 262.789 285.745H295.6C295.716 285.745 295.815 285.813 295.863 285.918C295.904 286.022 295.878 286.143 295.799 286.227L286.786 295.047H299.558C299.679 295.047 299.789 295.126 299.826 295.241C299.863 295.356 299.826 295.482 299.726 295.555L294.881 299.114L303.538 303.155C303.658 303.212 303.721 303.343 303.695 303.469C303.669 303.6 303.553 303.689 303.417 303.689H291.327L309.008 312.557C309.15 312.625 309.202 312.798 309.134 312.934C309.087 313.033 308.987 313.091 308.882 313.091L308.866 313.102ZM290.187 303.139H302.131L294.345 299.507L289.72 302.903L290.187 303.139ZM258.951 303.139H269.75L265.429 299.643L258.951 303.139ZM261.361 295.618L265.492 298.962L271.687 295.618H261.361ZM287.347 295.618L294.282 298.852L298.682 295.618H287.347ZM272.916 295.058H285.967L294.902 286.316H263.497L272.916 295.058Z" fill="#BD131B"/>
<path d="M299.542 295.619C299.495 295.619 299.443 295.608 299.401 295.582L283.394 286.275C283.32 286.233 283.268 286.154 283.257 286.07C283.247 285.986 283.273 285.897 283.331 285.834L291.641 277.004H265.681L274.695 285.824C274.758 285.882 274.784 285.965 274.779 286.049C274.768 286.133 274.726 286.212 274.653 286.259L260.72 295.561C260.589 295.645 260.416 295.614 260.326 295.483C260.237 295.352 260.274 295.179 260.405 295.09L274.049 285.976L264.789 276.915C264.705 276.836 264.678 276.715 264.726 276.605C264.768 276.5 264.873 276.432 264.988 276.432H292.292C292.403 276.432 292.508 276.501 292.55 276.6C292.592 276.705 292.571 276.825 292.497 276.904L283.982 285.95L299.684 295.079C299.821 295.158 299.863 295.331 299.784 295.467C299.731 295.556 299.637 295.608 299.542 295.608V295.619Z" fill="#BD131B"/>
<path d="M264.988 277.008C264.904 277.008 264.815 276.972 264.762 276.898C264.668 276.773 264.694 276.594 264.815 276.505L276.895 267.392L268.08 258.315C268.001 258.231 267.98 258.11 268.022 258.011C268.064 257.906 268.169 257.838 268.285 257.838H287.772C287.882 257.838 287.987 257.901 288.029 258.005C288.077 258.11 288.056 258.225 287.982 258.309L279.997 267.103L292.46 276.505C292.586 276.6 292.607 276.778 292.518 276.898C292.423 277.024 292.245 277.045 292.124 276.951L279.414 267.365C279.351 267.318 279.309 267.245 279.304 267.166C279.299 267.088 279.325 267.009 279.378 266.951L287.142 258.398H268.957L277.53 267.224C277.588 267.282 277.614 267.36 277.609 267.444C277.603 267.523 277.561 267.596 277.498 267.648L265.161 276.951C265.109 276.988 265.051 277.008 264.993 277.008H264.988Z" fill="#BD131B"/>
<path d="M287.772 258.399C287.704 258.399 287.63 258.373 287.578 258.32L277.409 248.735C277.357 248.682 277.325 248.614 277.32 248.536C277.32 248.462 277.346 248.389 277.399 248.331L284.176 241.282C284.286 241.172 284.465 241.167 284.575 241.277C284.685 241.382 284.691 241.565 284.586 241.675L278.002 248.52L287.966 257.911C288.077 258.016 288.082 258.194 287.977 258.31C287.919 258.367 287.846 258.399 287.772 258.399Z" fill="#BD131B"/>
<path d="M270.826 231.33C270.742 231.33 270.658 231.293 270.6 231.22C270.506 231.099 270.527 230.921 270.653 230.827L277.745 225.382L271.897 219.407C271.792 219.302 271.787 219.135 271.886 219.019L277.771 212.463L272.191 207.437C272.075 207.332 272.065 207.154 272.17 207.039C272.275 206.924 272.453 206.913 272.569 207.018L278.359 212.238C278.475 212.343 278.485 212.521 278.38 212.636L272.485 219.208L278.37 225.224C278.428 225.282 278.454 225.361 278.449 225.439C278.449 225.518 278.401 225.591 278.338 225.644L270.994 231.283C270.941 231.325 270.884 231.34 270.821 231.34L270.826 231.33Z" fill="#BD131B"/>
<path d="M284.523 230.905C284.46 230.905 284.397 230.884 284.344 230.842L277.987 225.628C277.866 225.533 277.85 225.36 277.945 225.235L282.754 219.061L277.94 212.604C277.866 212.505 277.866 212.363 277.94 212.264L281.94 207.075C282.035 206.949 282.213 206.928 282.334 207.023C282.455 207.117 282.481 207.295 282.386 207.421L278.517 212.436L283.331 218.893C283.405 218.998 283.405 219.134 283.331 219.234L278.559 225.36L284.701 230.402C284.822 230.502 284.838 230.68 284.738 230.8C284.68 230.868 284.602 230.905 284.518 230.905H284.523Z" fill="#BD131B"/>
<path d="M278.17 230.769C278.097 230.769 278.029 230.742 277.971 230.69C277.861 230.58 277.861 230.402 277.971 230.292L282.585 225.601H271.965C271.808 225.601 271.682 225.475 271.682 225.318C271.682 225.161 271.808 225.035 271.965 225.035H283.263C283.378 225.035 283.478 225.103 283.525 225.208C283.567 225.313 283.546 225.433 283.467 225.517L278.386 230.685C278.328 230.742 278.254 230.769 278.186 230.769H278.17Z" fill="#BD131B"/>
<path d="M283.819 225.691C283.741 225.691 283.667 225.659 283.609 225.596L277.819 219.108C277.735 219.009 277.724 218.867 277.798 218.757L281.961 212.809H272.527C272.37 212.809 272.244 212.683 272.244 212.526C272.244 212.369 272.37 212.243 272.527 212.243H282.502C282.607 212.243 282.701 212.3 282.754 212.395C282.801 212.489 282.796 212.599 282.733 212.688L278.386 218.899L284.029 225.219C284.134 225.334 284.124 225.513 284.008 225.617C283.956 225.664 283.888 225.691 283.819 225.691Z" fill="#BD131B"/>
<path d="M277.887 231.33C277.824 231.33 277.756 231.309 277.703 231.261L271.209 225.764C271.146 225.711 271.115 225.638 271.109 225.559C271.109 225.481 271.136 225.402 271.193 225.35L277.64 218.909L272.17 212.761C272.07 212.651 272.075 212.484 272.18 212.379L278.254 206.174C278.312 206.111 278.401 206.079 278.485 206.09C278.569 206.095 278.648 206.142 278.695 206.216L282.743 212.374C282.827 212.505 282.79 212.678 282.664 212.767C282.533 212.851 282.36 212.814 282.27 212.683L278.417 206.818L272.774 212.583L278.249 218.731C278.349 218.841 278.344 219.014 278.239 219.118L271.818 225.528L278.081 230.832C278.202 230.931 278.218 231.109 278.113 231.23C278.055 231.298 277.976 231.33 277.897 231.33H277.887Z" fill="#BD131B"/>
<path d="M280.9 188.376C280.811 188.376 280.722 188.334 280.669 188.256L277.514 183.696C277.462 183.618 277.451 183.518 277.488 183.429L280.013 177.329L274.406 177.287C274.307 177.287 274.217 177.234 274.165 177.145C274.112 177.061 274.112 176.951 274.165 176.868L277.567 170.715L274.406 165.637C274.322 165.506 274.364 165.333 274.496 165.249C274.627 165.165 274.8 165.207 274.884 165.338L278.134 170.552C278.186 170.642 278.191 170.746 278.139 170.841L274.884 176.726L280.433 176.768C280.528 176.768 280.612 176.815 280.664 176.894C280.717 176.972 280.727 177.072 280.69 177.156L278.065 183.497L281.131 187.931C281.221 188.062 281.189 188.235 281.058 188.324C281.011 188.355 280.953 188.371 280.895 188.371L280.9 188.376Z" fill="#BD131B"/>
<path d="M273.86 188.444C273.797 188.444 273.734 188.423 273.682 188.381C273.561 188.282 273.545 188.104 273.645 187.983L277.409 183.497L274.149 177.129C274.076 176.993 274.133 176.82 274.27 176.752C274.412 176.684 274.58 176.736 274.648 176.878L277.992 183.408C278.044 183.507 278.029 183.628 277.955 183.717L274.07 188.345C274.013 188.413 273.934 188.444 273.855 188.444H273.86Z" fill="#BD131B"/>
<path d="M277.43 188.549C277.346 188.549 277.257 188.512 277.204 188.433L273.566 183.56C273.498 183.465 273.493 183.345 273.55 183.245L277.42 176.898L274.154 170.741C274.081 170.604 274.133 170.431 274.27 170.358C274.406 170.285 274.579 170.337 274.653 170.473L277.997 176.773C278.044 176.862 278.039 176.967 277.987 177.05L274.133 183.376L277.656 188.098C277.75 188.224 277.724 188.402 277.598 188.491C277.546 188.528 277.488 188.549 277.43 188.549Z" fill="#BD131B"/>
<path d="M278.029 188.612C277.987 188.612 277.94 188.602 277.898 188.581C277.761 188.508 277.703 188.34 277.777 188.198L280.15 183.676H274.023C273.866 183.676 273.74 183.55 273.74 183.393C273.74 183.235 273.866 183.109 274.023 183.109H280.612C280.711 183.109 280.801 183.162 280.853 183.246C280.906 183.33 280.906 183.434 280.864 183.524L278.276 188.46C278.223 188.555 278.129 188.612 278.024 188.612H278.029Z" fill="#BD131B"/>
<path d="M280.617 183.676C280.507 183.676 280.407 183.613 280.36 183.508L277.488 177.02C277.457 176.952 277.457 176.873 277.483 176.805L279.74 170.888H274.406C274.301 170.888 274.207 170.83 274.16 170.741C274.112 170.652 274.112 170.542 274.17 170.453L277.514 165.191C277.572 165.102 277.667 165.055 277.772 165.06C277.877 165.065 277.966 165.128 278.008 165.223L280.407 170.484C280.407 170.484 280.407 170.495 280.412 170.495C280.438 170.558 280.438 170.626 280.417 170.684C280.417 170.684 280.417 170.694 280.417 170.699L278.055 176.889L280.879 183.267C280.942 183.408 280.879 183.576 280.738 183.639C280.701 183.655 280.659 183.665 280.622 183.665L280.617 183.676ZM274.916 170.332H279.709L277.703 165.941L274.916 170.332Z" fill="#BD131B"/>
<path d="M280.428 177.334C280.318 177.334 280.208 177.266 280.166 177.156L277.625 170.809C277.598 170.741 277.598 170.662 277.625 170.594L280.166 164.531C280.229 164.389 280.391 164.321 280.538 164.379C280.68 164.436 280.748 164.604 280.691 164.746L278.192 170.699L280.691 176.936C280.748 177.082 280.68 177.245 280.533 177.302C280.496 177.318 280.465 177.323 280.428 177.323V177.334Z" fill="#BD131B"/>
<path d="M257.833 277.433C257.681 277.433 257.555 277.312 257.549 277.16C257.544 277.003 257.665 276.872 257.822 276.867L264.883 276.584C265.036 276.584 265.172 276.699 265.177 276.856C265.183 277.013 265.062 277.144 264.904 277.15L257.843 277.433H257.833Z" fill="#A1001B"/>
<path d="M264.469 249.655C264.327 249.655 264.207 249.55 264.186 249.404C264.17 249.247 264.28 249.11 264.438 249.095L269.661 248.529C269.813 248.513 269.955 248.623 269.971 248.78C269.987 248.932 269.876 249.074 269.719 249.089L264.495 249.655C264.495 249.655 264.474 249.655 264.464 249.655H264.469Z" fill="#A1001B"/>
<path d="M262.495 259.105C262.353 259.105 262.227 258.995 262.217 258.848C262.201 258.691 262.317 258.554 262.469 258.539L268.259 257.973C268.412 257.957 268.553 258.072 268.569 258.224C268.585 258.382 268.469 258.518 268.317 258.534L262.527 259.1C262.527 259.1 262.506 259.1 262.5 259.1L262.495 259.105Z" fill="#A1001B"/>
<path d="M260.516 268.129C260.363 268.129 260.243 268.009 260.232 267.862C260.227 267.705 260.348 267.574 260.505 267.568L266.999 267.285C267.157 267.28 267.288 267.401 267.293 267.553C267.298 267.71 267.178 267.841 267.025 267.846L260.531 268.129H260.521H260.516Z" fill="#A1001B"/>
<path d="M254.867 286.875C254.72 286.875 254.594 286.76 254.584 286.608C254.573 286.451 254.694 286.32 254.851 286.309L262.763 285.885C262.92 285.874 263.052 285.995 263.062 286.152C263.073 286.309 262.952 286.44 262.794 286.451L254.888 286.875C254.888 286.875 254.878 286.875 254.872 286.875H254.867Z" fill="#A1001B"/>
<path d="M251.339 296.042C251.187 296.042 251.061 295.921 251.056 295.769C251.056 295.612 251.171 295.486 251.329 295.481L260.369 295.198C260.526 295.188 260.652 295.313 260.658 295.471C260.658 295.628 260.542 295.759 260.385 295.759L251.344 296.042H251.334H251.339Z" fill="#A1001B"/>
<path d="M247.522 304.218C247.375 304.218 247.249 304.102 247.239 303.95C247.228 303.793 247.349 303.662 247.507 303.652L257.534 303.086C257.697 303.075 257.823 303.196 257.833 303.353C257.844 303.51 257.723 303.641 257.565 303.652L247.538 304.218H247.522Z" fill="#A1001B"/>
<path d="M242.861 313.242C242.708 313.242 242.582 313.116 242.577 312.964C242.577 312.807 242.698 312.681 242.855 312.681L253.869 312.54C254.032 312.534 254.153 312.66 254.153 312.817C254.153 312.975 254.032 313.1 253.875 313.1L242.861 313.242Z" fill="#A1001B"/>
<path d="M268.002 225.972C267.855 225.972 267.734 225.857 267.718 225.71C267.708 225.553 267.823 225.422 267.981 225.406L271.792 225.123C271.95 225.108 272.081 225.228 272.097 225.385C272.107 225.543 271.992 225.679 271.834 225.689L268.023 225.972C268.023 225.972 268.007 225.972 268.002 225.972Z" fill="#A1001B"/>
<path d="M268.569 219.908C268.432 219.908 268.311 219.809 268.29 219.667C268.264 219.515 268.374 219.369 268.527 219.348L272.196 218.782C272.354 218.761 272.496 218.866 272.517 219.018C272.543 219.17 272.433 219.316 272.28 219.337L268.605 219.903C268.605 219.903 268.574 219.903 268.563 219.903L268.569 219.908Z" fill="#A1001B"/>
<path d="M269.131 213.285C268.984 213.285 268.863 213.175 268.847 213.028C268.837 212.871 268.952 212.734 269.105 212.724L272.496 212.441C272.653 212.425 272.79 212.546 272.8 212.698C272.811 212.855 272.695 212.991 272.543 213.002L269.152 213.285C269.152 213.285 269.136 213.285 269.126 213.285H269.131Z" fill="#A1001B"/>
<path d="M271.394 184.24C271.252 184.24 271.131 184.135 271.115 183.988C271.1 183.836 271.21 183.695 271.367 183.679L273.908 183.396C274.066 183.381 274.202 183.491 274.218 183.648C274.234 183.805 274.123 183.941 273.966 183.957L271.425 184.24C271.425 184.24 271.404 184.24 271.394 184.24Z" fill="#A1001B"/>
<path d="M271.955 177.893C271.819 177.893 271.703 177.799 271.677 177.662C271.651 177.51 271.751 177.364 271.908 177.337L274.307 176.913C274.459 176.887 274.606 176.986 274.633 177.143C274.659 177.295 274.559 177.442 274.402 177.468L272.003 177.893C272.003 177.893 271.971 177.893 271.955 177.893Z" fill="#A1001B"/>
<path d="M272.38 171.41C272.239 171.41 272.118 171.305 272.102 171.164C272.081 171.012 272.191 170.865 272.344 170.85L274.465 170.567C274.617 170.546 274.759 170.656 274.78 170.808C274.801 170.96 274.69 171.106 274.538 171.122L272.417 171.405C272.417 171.405 272.391 171.405 272.38 171.405V171.41Z" fill="#A1001B"/>
<path d="M274.921 188.046C272.674 188.292 272.947 188.282 270.727 188.79C270.244 194.88 269.713 201.394 269.183 207.62C271.383 207.248 273.593 206.96 275.808 206.735L274.916 188.046H274.921Z" fill="#C8C8C8"/>
<path d="M282.455 207.033C282.008 201.012 281.604 194.786 281.184 188.376C278.743 188.376 276.302 188.077 273.861 188.161C273.583 194.12 273.21 200.655 272.863 207.033C276.06 206.992 279.252 206.992 282.449 207.033H282.455Z" fill="#E9E9E9"/>
<path d="M270.826 233.399L268.002 230.486L263.062 231.754L264.048 241.481L268.569 241.103L274.028 236.219" fill="#C8C8C8"/>
<path d="M268.001 230.486H289.184L288.623 241.103H268.568L268.001 230.486Z" fill="#E9E9E9"/>
<path d="M276.475 103.905C276.36 103.905 276.26 103.81 276.26 103.69V89.2149C276.26 89.0996 276.354 89 276.475 89C276.596 89 276.69 89.0943 276.69 89.2149V103.69C276.69 103.805 276.596 103.905 276.475 103.905Z" fill="#FF544D"/>
<path d="M273.346 161.307V148.536L275.908 147.404L279.604 147.97V160.511L273.346 161.307Z" fill="#C8C8C8"/>
<path d="M275.352 121.399C276.15 121.467 276.953 121.53 277.761 121.588L277.425 105.425C276.8 105.477 276.181 105.535 275.562 105.598L275.352 121.399Z" fill="#E9E9E9"/>
<path d="M275.625 100.855L275.562 105.598C276.181 105.535 276.806 105.477 277.425 105.425L277.331 100.855H275.625Z" fill="#D6221B"/>
<path d="M275.352 121.399L275.058 143.431L278.186 142.011L277.761 121.587C276.953 121.53 276.15 121.467 275.352 121.399Z" fill="#D6221B"/>
<path d="M270.815 145.575L271.361 151.376C276.763 149.39 281.599 151.376 281.599 151.376L282.145 145.569C278.569 144.243 274.359 144.38 270.821 145.575H270.815Z" fill="#E9E9E9"/>
<path d="M270.506 142.294L270.816 145.574C274.354 144.38 278.564 144.243 282.139 145.569L282.449 142.294C276.191 138.038 270.506 142.294 270.506 142.294Z" fill="#FF544D"/>
<path d="M282.407 159.992C282.407 159.992 277.042 156.606 270.826 159.992L271.11 165.631C271.11 165.631 277.887 164.504 281.846 165.631L282.412 159.992H282.407Z" fill="#E9E9E9"/>
<path d="M270.264 231.822H269.556V235.066H270.264V231.822Z" fill="#4A7FBB"/>
<path d="M272.385 231.822H271.677V235.066H272.385V231.822Z" fill="#4A7FBB"/>
<path d="M274.496 231.822H273.792V235.066H274.496V231.822Z" fill="#4A7FBB"/>
<path d="M276.617 231.822H275.913V235.066H276.617V231.822Z" fill="#4A7FBB"/>
<path d="M278.738 231.822H278.029V235.066H278.738V231.822Z" fill="#4A7FBB"/>
<path d="M280.859 231.822H280.15V235.066H280.859V231.822Z" fill="#4A7FBB"/>
<path d="M282.974 231.822H282.266V235.066H282.974V231.822Z" fill="#4A7FBB"/>
<path d="M285.095 231.822H284.386V235.066H285.095V231.822Z" fill="#4A7FBB"/>
<path d="M287.205 231.822H286.502V235.066H287.205V231.822Z" fill="#4A7FBB"/>
<path d="M270.264 236.193H269.556V239.437H270.264V236.193Z" fill="#4A7FBB"/>
<path d="M272.385 236.193H271.677V239.437H272.385V236.193Z" fill="#4A7FBB"/>
<path d="M274.496 236.193H273.792V239.437H274.496V236.193Z" fill="#4A7FBB"/>
<path d="M276.617 236.193H275.913V239.437H276.617V236.193Z" fill="#4A7FBB"/>
<path d="M278.738 236.193H278.029V239.437H278.738V236.193Z" fill="#4A7FBB"/>
<path d="M280.859 236.193H280.15V239.437H280.859V236.193Z" fill="#4A7FBB"/>
<path d="M282.974 236.193H282.266V239.437H282.974V236.193Z" fill="#4A7FBB"/>
<path d="M285.095 236.193H284.386V239.437H285.095V236.193Z" fill="#4A7FBB"/>
<path d="M287.205 236.193H286.502V239.437H287.205V236.193Z" fill="#4A7FBB"/>
<path d="M212.95 321.819C212.95 321.819 212.95 307.796 218.971 308.998C218.971 308.998 222.18 309.798 223.384 315.009C223.384 315.009 222.981 300.584 228.604 300.584C234.227 300.584 235.425 315.009 235.425 315.009C235.425 315.009 237.43 306.594 241.446 306.997C245.462 307.4 244.655 317.413 244.655 317.413C244.655 317.413 245.456 311 248.268 311.805C251.079 312.605 251.079 323.423 251.079 323.423L229.405 327.829L214.154 326.224L212.95 321.819Z" fill="#33A400"/>
<path d="M335 320H0V348H335V320Z" fill="#83C700"/>
<path d="M298.594 269.979H297.39V272.984H298.594V269.979Z" fill="white"/>
<path d="M303.411 275.689H302.207V278.694H303.411V275.689Z" fill="white"/>
<path d="M306.62 286.309H305.416V289.315H306.62V286.309Z" fill="white"/>
<path d="M185.201 274.986H183.997V277.793H185.201V274.986Z" fill="white"/>
<path d="M189.818 284.001H188.614V286.808H189.818V284.001Z" fill="white"/>
<path d="M185.002 291.016H183.798V293.822H185.002V291.016Z" fill="white"/>
<path d="M198.049 288.215H196.845V291.022H198.049V288.215Z" fill="white"/>
<path d="M99.5083 290.414H98.7075V293.618H99.5083V290.414Z" fill="white"/>
<path d="M105.926 293.017H105.125V296.22H105.926V293.017Z" fill="white"/>
<path d="M133.224 303.036H132.423V306.24H133.224V303.036Z" fill="white"/>
<path d="M124.59 299.43H123.79V302.634H124.59V299.43Z" fill="white"/>
<path d="M113.958 305.242H113.157V308.446H113.958V305.242Z" fill="white"/>
<path d="M101.712 301.834H100.911V305.038H101.712V301.834Z" fill="white"/>
<path d="M147.902 290.877H146.969V293.486H147.902V290.877Z" fill="white"/>
<path d="M152.942 286.406H152.009V289.014H152.942V286.406Z" fill="white"/>
<path d="M152.942 299.634H152.009V302.243H152.942V299.634Z" fill="white"/>
<path d="M148.276 307.64H147.342V310.249H148.276V307.64Z" fill="white"/>
</g>
<defs>
<linearGradient id="paint0_linear_10_12540" x1="169.5" y1="195" x2="169.5" y2="-14" gradientUnits="userSpaceOnUse">
<stop stop-color="#0077FF" stop-opacity="0"/>
<stop offset="1" stop-color="#0077FF"/>
</linearGradient>
<clipPath id="clip0_10_12540">
<rect width="335" height="348" fill="white"/>
</clipPath>
</defs>
</svg>
