<svg width="335" height="348" viewBox="0 0 335 348" fill="none" xmlns="http://www.w3.org/2000/svg">
<g clip-path="url(#clip0_10_12437)">
<rect width="335" height="348" fill="#18436B"/>
<mask id="mask0_10_12437" style="mask-type:alpha" maskUnits="userSpaceOnUse" x="31" y="258" width="170" height="90">
<path d="M134.487 258C138.867 258 142.368 262.053 143.087 266.956C147.936 300.033 178.207 331.487 199.956 345.778C200.935 346.421 200.477 347.997 199.305 347.997H32.1892C31.0172 347.997 30.5593 346.421 31.5388 345.778C53.2871 331.487 83.5582 300.033 88.4076 266.956C89.1265 262.053 92.627 258 97.0076 258H134.487Z" fill="black"/>
</mask>
<g mask="url(#mask0_10_12437)">
<path d="M137.572 258C142.542 258 146.514 262.053 147.33 266.956C153.138 301.87 191.082 334.975 215.869 347.997H16.7505C41.5377 334.975 79.4821 301.87 85.2898 266.956C86.1055 262.053 90.0773 258 95.0476 258H137.572Z" fill="#AAD0FF"/>
<path d="M61.7487 297.378C71.6484 291.078 78.6232 262.879 80.8731 253.504L155.121 245.63L168.62 301.878C149.496 301.878 143.871 280.504 137.121 280.504C130.372 280.504 136.863 299.542 130.372 297.378C123.622 295.128 121.695 284.363 119.122 280.504C114.622 273.754 102.247 306.378 98.8726 297.378C95.4977 288.378 96.6227 276.004 88.7479 289.503C80.8731 303.003 49.3741 305.253 61.7487 297.378Z" fill="white"/>
</g>
<path d="M63.867 328.915C44.9862 328.915 37.8454 346.666 36.6351 355.541H20.2959C39.1767 331.335 48.3347 289.144 50.5536 271.595H63.867" stroke="#D21414" stroke-width="3"/>
<path d="M63.8669 328.915C72.7863 328.915 79.0857 332.876 83.3776 337.992C88.1709 343.705 90.4603 350.859 91.0988 355.541H107.438C88.5572 331.335 79.3992 289.144 77.1803 271.595H63.8669" stroke="#D21414" stroke-width="3"/>
<rect x="55.395" y="204.257" width="16.9443" height="3.63092" fill="#D21414"/>
<rect x="60.2358" y="201.833" width="7.26185" height="2.42062" fill="white"/>
<rect x="57.8154" y="196.995" width="12.1031" height="4.84123" fill="#D21414"/>
<rect x="57.8154" y="194.582" width="12.1031" height="2.42062" fill="white"/>
<rect x="62.6562" y="151" width="2.42062" height="10.8928" fill="#D21414"/>
<path d="M62.6565 169.165H65.0771L67.4977 194.581H60.2358L62.6565 169.165Z" fill="#D21414"/>
<path d="M41.4761 341.613H29.373" stroke="#D21414" stroke-width="3"/>
<path d="M92.9143 328.915L63.8671 328.915M36.0298 328.915L63.8671 328.915M63.8671 328.915L63.8666 314.39M63.8671 328.915L86.8627 314.845M63.8671 328.915L40.871 314.845M63.8666 271.595V285.344M63.8666 300.775V285.344M63.8666 300.775V314.39M63.8666 300.775L48.2468 285.344M63.8666 300.775L79.4869 285.344M63.8666 285.344L50.5537 271.595M63.8666 285.344L77.1803 271.595M63.8666 314.39L82.6266 299.867M63.8666 314.39L45.7122 300.775" stroke="#D21414" stroke-width="3"/>
<path d="M88.0731 314.402H40.8711" stroke="#D21414" stroke-width="3"/>
<path d="M83.2319 299.867H45.7124" stroke="#D21414" stroke-width="3"/>
<path d="M79.6003 285.344H48.1323" stroke="#D21414" stroke-width="3"/>
<path d="M63.8669 216.357V232.696M63.8669 263.559L73.5493 249.035M63.8669 263.559L54.7896 249.035M63.8669 263.559V249.035M63.8669 249.035L72.339 232.091M63.8669 249.035L54.7896 232.091M63.8669 249.035V232.696M63.8669 232.696L57.2102 216.357M63.8669 232.696L71.1287 216.357" stroke="#D21414" stroke-width="3"/>
<path d="M65.0775 216.357H56.5189L51.7642 264.769H65.0775" stroke="#D21414" stroke-width="3"/>
<path d="M63.8666 216.357H71.6472L75.9697 264.769H63.8666" stroke="#D21414" stroke-width="3"/>
<path d="M74.7597 249.046H52.9741" stroke="#D21414" stroke-width="3"/>
<path d="M73.5495 232.086H54.1846" stroke="#D21414" stroke-width="3"/>
<path d="M98.9659 341.613H86.8628" stroke="#D21414" stroke-width="3"/>
<path d="M44.5024 261.134H83.2323L78.7834 270.816H48.956L44.5024 261.134Z" fill="white"/>
<rect x="50.5537" y="263.559" width="3.63092" height="4.84123" fill="black"/>
<rect x="57.8154" y="263.559" width="3.63092" height="4.84123" fill="black"/>
<rect x="66.2871" y="263.559" width="3.63092" height="4.84123" fill="black"/>
<rect x="73.5493" y="263.559" width="3.63092" height="4.84123" fill="black"/>
<rect x="50.5537" y="207.897" width="26.6268" height="7.26185" fill="white"/>
<rect x="52.9741" y="209.094" width="2.42062" height="4.84123" fill="black"/>
<rect x="57.8154" y="209.094" width="2.42062" height="4.84123" fill="black"/>
<rect x="62.6562" y="209.094" width="2.42062" height="4.84123" fill="black"/>
<rect x="67.4976" y="209.094" width="2.42062" height="4.84123" fill="black"/>
<rect x="72.3389" y="209.094" width="2.42062" height="4.84123" fill="black"/>
<path d="M60.2358 167.948C60.2358 170.369 62.6565 171.579 63.8668 171.579C65.0771 171.579 67.4977 170.369 67.4977 167.948H63.8668H60.2358Z" fill="white"/>
<path d="M60.2358 167.948C60.2358 162.502 62.6565 160.081 63.8668 160.081C65.0771 160.081 67.4977 161.896 67.4977 167.948H63.8668H60.2358Z" fill="#D21414"/>
<circle cx="28.2648" cy="28.2648" r="28.2648" transform="matrix(-0.769075 0.639159 0.639159 0.769075 201.182 153)" fill="#FFCE2D"/>
<circle cx="8.23477" cy="8.23477" r="8.23477" transform="matrix(-1 0 0 1 196.409 172.215)" fill="#E1B00D"/>
<circle cx="4.11738" cy="4.11738" r="4.11738" transform="matrix(-1 0 0 1 204.644 169.47)" fill="#E1B00D"/>
<rect x="229.227" y="194.422" width="38.5254" height="141.26" fill="#5F6C87"/>
<rect x="245.279" y="297.156" width="6.42091" height="36.3851" rx="0.525615" fill="#BACFFB"/>
<rect x="235.648" y="327.12" width="25.6836" height="6.42091" fill="#BACFFB"/>
<path d="M281.664 191.211L284.875 188H291.295L284.875 194.421H278.454L281.664 191.211Z" fill="#8EA8DD"/>
<path d="M215.315 191.211L212.104 188H205.684L212.104 194.421H218.525L215.315 191.211Z" fill="#8EA8DD"/>
<path d="M212.105 194.422L235.648 206.193V348.523H212.105L212.105 194.422Z" fill="#96AAD3"/>
<path d="M284.875 194.422L261.331 206.193V348.523H284.875L284.875 194.422Z" fill="#96AAD3"/>
<path d="M199.263 213.146C199.263 212.39 200.039 211.881 200.733 212.182L226.902 223.545C227.501 223.805 227.945 224.329 228.104 224.962L235.648 254.992V335.681H199.263V213.146Z" fill="#BACFFB"/>
<path d="M297.716 213.146C297.716 212.39 296.941 211.881 296.246 212.182L270.077 223.545C269.479 223.805 269.035 224.329 268.876 224.962L261.331 254.992V335.681H297.716V213.146Z" fill="#BACFFB"/>
<rect x="180" y="335.681" width="136.979" height="12.8418" rx="1.05123" fill="#BACFFB"/>
<path d="M244.198 211.412L212.105 194.422H284.875L252.783 211.412C250.098 212.833 246.883 212.833 244.198 211.412Z" fill="#BCC8E0"/>
<rect x="203.543" y="312.138" width="27.8239" height="6.42091" rx="0.525615" fill="#DDEFFF"/>
<rect width="27.8239" height="6.42091" rx="0.525615" transform="matrix(-1 0 0 1 293.436 312.138)" fill="#DDEFFF"/>
<rect x="203.543" y="299.297" width="27.8239" height="6.42091" rx="0.525615" fill="#DDEFFF"/>
<rect width="27.8239" height="6.42091" rx="0.525615" transform="matrix(-1 0 0 1 293.436 299.297)" fill="#DDEFFF"/>
<rect x="203.543" y="286.454" width="27.8239" height="6.42091" rx="0.525615" fill="#DDEFFF"/>
<rect width="27.8239" height="6.42091" rx="0.525615" transform="matrix(-1 0 0 1 293.436 286.454)" fill="#DDEFFF"/>
<rect x="203.543" y="273.613" width="27.8239" height="6.42091" rx="0.525615" fill="#DDEFFF"/>
<rect width="27.8239" height="6.42091" rx="0.525615" transform="matrix(-1 0 0 1 293.436 273.613)" fill="#DDEFFF"/>
<rect x="203.543" y="260.771" width="27.8239" height="6.42091" rx="0.525615" fill="#DDEFFF"/>
<rect width="27.8239" height="6.42091" rx="0.525615" transform="matrix(-1 0 0 1 293.436 260.771)" fill="#DDEFFF"/>
<rect x="203.543" y="247.929" width="25.6836" height="6.42091" rx="0.525615" fill="#DDEFFF"/>
<rect width="25.6836" height="6.42091" rx="0.525615" transform="matrix(-1 0 0 1 293.436 247.929)" fill="#DDEFFF"/>
<rect x="203.543" y="235.087" width="19.2627" height="6.42091" rx="0.525615" fill="#DDEFFF"/>
<rect width="19.2627" height="6.42091" rx="0.525615" transform="matrix(-1 0 0 1 293.436 235.087)" fill="#DDEFFF"/>
<rect x="203.543" y="222.246" width="12.8418" height="6.42091" rx="0.525615" fill="#DDEFFF"/>
<rect width="12.8418" height="6.42091" rx="0.525615" transform="matrix(-1 0 0 1 293.436 222.246)" fill="#DDEFFF"/>
<rect x="235.648" y="333.542" width="25.6836" height="14.9821" fill="#313B4E"/>
<path d="M192.102 327.486C192.418 327.23 192.821 327.12 193.227 327.12H235.096C235.564 327.12 235.976 327.43 236.106 327.88L242.069 348.523H186.421C186.421 348.523 186.421 332.089 192.102 327.486Z" fill="#8EA8DD"/>
<path d="M304.878 327.486C304.562 327.23 304.159 327.12 303.753 327.12H261.884C261.416 327.12 261.004 327.43 260.874 327.88L254.91 348.523H310.558C310.558 348.523 310.558 332.089 304.878 327.486Z" fill="#8EA8DD"/>
<path d="M255.378 150.894C255.375 157.176 250.282 162.267 244 162.267V162.273C250.284 162.273 255.378 167.368 255.378 173.652C255.378 167.368 260.473 162.273 266.757 162.273H266.758V162.267L266.757 162.268C260.474 162.268 255.381 157.176 255.378 150.894Z" fill="#FFCE2D"/>
<path d="M167.365 221.584C167.669 227.581 172.628 232.348 178.7 232.349V232.35C172.432 232.35 167.351 237.432 167.351 243.7C167.351 237.432 162.269 232.35 156 232.35C162.268 232.35 167.35 227.268 167.351 221L167.365 221.584Z" fill="#FFCE2D"/>
<path d="M261.787 146.495C264.327 149.307 264.327 153.598 261.787 156.409L261.539 156.669C264.421 153.802 269.077 153.798 271.964 156.656C269.106 153.769 269.109 149.115 271.976 146.233C269.085 149.109 264.41 149.105 261.525 146.22L261.524 146.219L261.787 146.495Z" fill="#FFCE2D"/>
</g>
<defs>
<clipPath id="clip0_10_12437">
<rect width="335" height="348" fill="white"/>
</clipPath>
</defs>
</svg>
